
<svg xmlns="http://www.w3.org/2000/svg" width="505px" height="195px">
  <style type="text/css">
    circle { fill: #000000; stroke: none; }
    path { fill: none; stroke: #000000; }
    text { font-size: 16px; font-style: normal; font-family: Sans; }
    .vector { font-weight: bold; }
  </style>
  <path d="m 5,85 a 520,520 0 0 1 372,105"></path>
  <path d="m 5,5 a 600,600 0 0 1 490,185"></path>
  <path d="m 60,0 0,190"></path>
  <path d="m 60,65 180,-35"></path>
  <path d="m 55,5 5,-5 5,5"></path>
  <path d="m 55,60 5,5 5,-5"></path>
  <path d="m 55,70 5,-5 5,5"></path>
  <path d="m 60,40 a 25,25 0 0 1 25,20" style="stroke-dasharray:4,2;"></path>
  <path d="m 60,65 415,105"></path>
  <circle cx="60" cy="65" r="2.5"></circle>
  <circle cx="240" cy="30" r="2.5"></circle>
  <circle cx="180" cy="95" r="2.5"></circle>
  <circle cx="475" cy="170" r="2.5"></circle>
  <text x="20" y="40">d<tspan style="font-size:10px" dy="2">min</tspan></text>
  <text x="35" y="70" class="vector">p</text>
  <text x="35" y="125">r</text>
  <text x="75" y="40">μ=cos(θ)</text>
  <text x="120" y="75">ρ</text>
  <text x="155" y="60">d</text>
  <text x="315" y="125">H</text>
</svg>