<svg height="190px" width="360px" xmlns="http://www.w3.org/2000/svg">
  <style type="text/css">
    circle { fill: #000000; stroke: none; }
    path { fill: none; stroke: #000000; }
    text { font-size: 16px; font-style: normal; font-family: Sans; }
    /* text { 
      font-size: 16px; 
      font-style: normal; 
      font-family: 'Arial', 'Segoe UI', sans-serif; 
    } */
    .vector { font-weight: bold; }
  </style>
  <path d="m 0,66 a 600,600 0 0 1 340,0"></path>
  <path d="m 0,150 a 520,520 0 0 1 340,0"></path>
  <path d="m 170,180 0,-165"></path>
  <path d="m 170,90 -30,-60"></path>
  <path d="m 155,70 0,-10 8,6"></path>
  <!-- 170,90 to 345,55 -->
  <path d="m 170,90 175,-35"></path>
  <path d="m 170,90 -3.5,-17.5"></path>
  <!-- 170,90 to 319.2,60: 149.2,-30-->
  <!-- 37.3,-7.5 -->
  <path d="m 207.3, 82.5, -1.4,-7"></path>
  <!-- 74.6,-15 -->
  <path d="m 244.6, 75, -1.4,-7"></path>
  <!-- 111.9,-22.5 -->
  <path d="m 281.9, 67.5, -1.4,-7"></path>
  <!-- 149.2,-30 -->
  <path d="m 319.2, 60, -3.5,-17.5"></path>
  
  <path d="m 177,125 149.2,-30"></path>
  
  <path d="m 177,125 -3.5,-17.5"></path>
  <path d="m 326.2,95 -3.5,-17.5"></path>

  <!-- 37.3,-7.5: 18.65,-3.75 -->
  <path d="m 195.65,121.25 -1.4,-7"></path>
  <!-- 37.3,-7.5 -->
  <path d="m 232.95,113.75 -1.4,-7"></path>
  <!-- 37.3,-7.5 -->
  <path d="m 270.25,106.25 -1.4,-7"></path>
  <!-- 37.3,-7.5 -->
  <path d="m 307.55,98.75 -1.4,-7"></path>
  <circle cx="170" cy="90" r="2.5"></circle>
  <circle cx="319.2" cy="60" r="2.5"></circle>
</svg>